<svg width="18" height="18" viewBox="0 0 18 18" fill="none" xmlns="http://www.w3.org/2000/svg">
<path d="M15 6L10.5 2.055C10.0875 1.68604 9.55346 1.48206 9.00001 1.48206C8.44656 1.48206 7.91253 1.68604 7.50001 2.055L3.00001 6C2.76179 6.21306 2.57169 6.47442 2.44236 6.76669C2.31304 7.05895 2.24747 7.37542 2.25001 7.695V14.25C2.25001 14.8467 2.48706 15.419 2.90902 15.841C3.33098 16.263 3.90327 16.5 4.50001 16.5H13.5C14.0967 16.5 14.669 16.263 15.091 15.841C15.513 15.419 15.75 14.8467 15.75 14.25V7.6875C15.7515 7.36918 15.6854 7.05416 15.5561 6.76327C15.4268 6.47237 15.2373 6.21222 15 6ZM10.5 15H7.50001V11.25C7.50001 11.0511 7.57903 10.8603 7.71968 10.7197C7.86033 10.579 8.0511 10.5 8.25001 10.5H9.75001C9.94892 10.5 10.1397 10.579 10.2803 10.7197C10.421 10.8603 10.5 11.0511 10.5 11.25V15ZM14.25 14.25C14.25 14.4489 14.171 14.6397 14.0303 14.7803C13.8897 14.921 13.6989 15 13.5 15H12V11.25C12 10.6533 11.763 10.081 11.341 9.65901C10.919 9.23706 10.3467 9 9.75001 9H8.25001C7.65327 9 7.08098 9.23706 6.65902 9.65901C6.23706 10.081 6.00001 10.6533 6.00001 11.25V15H4.50001C4.3011 15 4.11033 14.921 3.96968 14.7803C3.82903 14.6397 3.75001 14.4489 3.75001 14.25V7.6875C3.75014 7.58102 3.77296 7.47578 3.81692 7.37879C3.86089 7.2818 3.92501 7.19529 4.00501 7.125L8.50501 3.1875C8.64188 3.06727 8.81783 3.00095 9.00001 3.00095C9.18219 3.00095 9.35814 3.06727 9.49501 3.1875L13.995 7.125C14.075 7.19529 14.1391 7.2818 14.1831 7.37879C14.2271 7.47578 14.2499 7.58102 14.25 7.6875V14.25Z" fill="white"/>
</svg>
