<svg width="18" height="18" viewBox="0 0 18 18" fill="none" xmlns="http://www.w3.org/2000/svg">
<path d="M2.625 4.5C2.47666 4.5 2.33166 4.54399 2.20832 4.6264C2.08499 4.70881 1.98886 4.82594 1.93209 4.96299C1.87532 5.10003 1.86047 5.25083 1.88941 5.39632C1.91835 5.5418 1.98978 5.67544 2.09467 5.78033C2.19956 5.88522 2.3332 5.95665 2.47868 5.98559C2.62417 6.01453 2.77497 5.99968 2.91201 5.94291C3.04906 5.88614 3.16619 5.79001 3.2486 5.66668C3.33101 5.54334 3.375 5.39834 3.375 5.25C3.375 5.05109 3.29598 4.86032 3.15533 4.71967C3.01468 4.57902 2.82391 4.5 2.625 4.5ZM5.625 6H16.125C16.3239 6 16.5147 5.92098 16.6553 5.78033C16.796 5.63968 16.875 5.44891 16.875 5.25C16.875 5.05109 16.796 4.86032 16.6553 4.71967C16.5147 4.57902 16.3239 4.5 16.125 4.5H5.625C5.42609 4.5 5.23532 4.57902 5.09467 4.71967C4.95402 4.86032 4.875 5.05109 4.875 5.25C4.875 5.44891 4.95402 5.63968 5.09467 5.78033C5.23532 5.92098 5.42609 6 5.625 6ZM5.625 8.25C5.47666 8.25 5.33166 8.29399 5.20832 8.3764C5.08499 8.45881 4.98886 8.57594 4.93209 8.71299C4.87532 8.85003 4.86047 9.00083 4.88941 9.14632C4.91835 9.2918 4.98978 9.42544 5.09467 9.53033C5.19956 9.63522 5.3332 9.70665 5.47868 9.73559C5.62417 9.76453 5.77497 9.74968 5.91201 9.69291C6.04906 9.63614 6.16619 9.54001 6.2486 9.41668C6.33101 9.29334 6.375 9.14834 6.375 9C6.375 8.80109 6.29598 8.61032 6.15533 8.46967C6.01468 8.32902 5.82391 8.25 5.625 8.25ZM8.625 12C8.47666 12 8.33166 12.044 8.20832 12.1264C8.08499 12.2088 7.98886 12.3259 7.93209 12.463C7.87533 12.6 7.86047 12.7508 7.88941 12.8963C7.91835 13.0418 7.98978 13.1754 8.09467 13.2803C8.19956 13.3852 8.3332 13.4566 8.47868 13.4856C8.62417 13.5145 8.77497 13.4997 8.91201 13.4429C9.04906 13.3861 9.16619 13.29 9.2486 13.1667C9.33101 13.0433 9.375 12.8983 9.375 12.75C9.375 12.5511 9.29598 12.3603 9.15533 12.2197C9.01468 12.079 8.82391 12 8.625 12ZM16.125 8.25H8.625C8.42609 8.25 8.23532 8.32902 8.09467 8.46967C7.95402 8.61032 7.875 8.80109 7.875 9C7.875 9.19891 7.95402 9.38968 8.09467 9.53033C8.23532 9.67098 8.42609 9.75 8.625 9.75H16.125C16.3239 9.75 16.5147 9.67098 16.6553 9.53033C16.796 9.38968 16.875 9.19891 16.875 9C16.875 8.80109 16.796 8.61032 16.6553 8.46967C16.5147 8.32902 16.3239 8.25 16.125 8.25ZM16.125 12H11.625C11.4261 12 11.2353 12.079 11.0947 12.2197C10.954 12.3603 10.875 12.5511 10.875 12.75C10.875 12.9489 10.954 13.1397 11.0947 13.2803C11.2353 13.421 11.4261 13.5 11.625 13.5H16.125C16.3239 13.5 16.5147 13.421 16.6553 13.2803C16.796 13.1397 16.875 12.9489 16.875 12.75C16.875 12.5511 16.796 12.3603 16.6553 12.2197C16.5147 12.079 16.3239 12 16.125 12Z" fill="white"/>
</svg>
