<svg width="22" height="22" viewBox="0 0 22 22" fill="none" xmlns="http://www.w3.org/2000/svg">
<path d="M19.9008 18.5992L16.5 15.2259C17.8201 13.5799 18.4594 11.4907 18.2864 9.38789C18.1134 7.28506 17.1413 5.32842 15.57 3.92029C13.9987 2.51217 11.9476 1.75959 9.83849 1.8173C7.72934 1.87501 5.72247 2.73863 4.23052 4.23058C2.73857 5.72253 1.87495 7.7294 1.81724 9.83855C1.75952 11.9477 2.5121 13.9988 3.92023 15.5701C5.32836 17.1414 7.285 18.1135 9.38783 18.2864C11.4907 18.4594 13.5798 17.8201 15.2258 16.5L18.5991 19.8734C18.6844 19.9593 18.7857 20.0275 18.8974 20.074C19.0091 20.1206 19.129 20.1445 19.25 20.1445C19.371 20.1445 19.4908 20.1206 19.6025 20.074C19.7142 20.0275 19.8156 19.9593 19.9008 19.8734C20.066 19.7024 20.1584 19.474 20.1584 19.2363C20.1584 18.9986 20.066 18.7701 19.9008 18.5992ZM10.0833 16.5C8.81421 16.5 7.57361 16.1237 6.5184 15.4186C5.46318 14.7136 4.64074 13.7114 4.15508 12.5389C3.66942 11.3664 3.54235 10.0763 3.78993 8.83154C4.03752 7.58683 4.64865 6.44349 5.54604 5.5461C6.44343 4.64871 7.58677 4.03758 8.83148 3.79C10.0762 3.54241 11.3664 3.66948 12.5389 4.15514C13.7114 4.6408 14.7135 5.46324 15.4186 6.51846C16.1236 7.57367 16.5 8.81427 16.5 10.0834C16.5 11.7852 15.8239 13.4173 14.6206 14.6206C13.4172 15.824 11.7851 16.5 10.0833 16.5Z" fill="black"/>
</svg>
