<svg width="22" height="23" viewBox="0 0 22 23" fill="none" xmlns="http://www.w3.org/2000/svg">
<path d="M19.5433 9.25421L17.8108 8.67671L18.6267 7.04504C18.7094 6.87426 18.737 6.68201 18.7058 6.49483C18.6746 6.30766 18.5861 6.13478 18.4525 6.00004L16.5 4.04754C16.3645 3.91196 16.19 3.82223 16.0009 3.79099C15.8118 3.75975 15.6177 3.78856 15.4458 3.87338L13.8142 4.68921L13.2367 2.95671C13.1757 2.77612 13.0599 2.61903 12.9055 2.50731C12.751 2.39559 12.5656 2.33479 12.375 2.33338H9.625C9.43282 2.33288 9.24536 2.39279 9.08909 2.50465C8.93282 2.6165 8.81566 2.77464 8.75416 2.95671L8.17666 4.68921L6.545 3.87338C6.37421 3.79068 6.18197 3.76301 5.99479 3.79421C5.80761 3.82541 5.63473 3.91392 5.5 4.04754L3.5475 6.00004C3.41191 6.13549 3.32219 6.31004 3.29095 6.49913C3.25971 6.68822 3.28852 6.88234 3.37333 7.05421L4.18916 8.68588L2.45666 9.26338C2.27607 9.32437 2.11899 9.44014 2.00727 9.59457C1.89555 9.74901 1.83475 9.93444 1.83333 10.125V12.875C1.83284 13.0672 1.89275 13.2547 2.0046 13.411C2.11646 13.5672 2.2746 13.6844 2.45666 13.7459L4.18916 14.3234L3.37333 15.955C3.29063 16.1258 3.26297 16.3181 3.29416 16.5053C3.32536 16.6924 3.41388 16.8653 3.5475 17L5.5 18.9525C5.63545 19.0881 5.80999 19.1779 5.99908 19.2091C6.18817 19.2403 6.3823 19.2115 6.55416 19.1267L8.18583 18.3109L8.76333 20.0434C8.82483 20.2254 8.94199 20.3836 9.09825 20.4954C9.25452 20.6073 9.44199 20.6672 9.63416 20.6667H12.3842C12.5763 20.6672 12.7638 20.6073 12.9201 20.4954C13.0763 20.3836 13.1935 20.2254 13.255 20.0434L13.8325 18.3109L15.4642 19.1267C15.6339 19.2073 15.8242 19.2339 16.0095 19.2027C16.1948 19.1715 16.366 19.0842 16.5 18.9525L18.4525 17C18.5881 16.8646 18.6778 16.69 18.709 16.501C18.7403 16.3119 18.7115 16.1177 18.6267 15.9459L17.8108 14.3142L19.5433 13.7367C19.7239 13.6757 19.881 13.5599 19.9927 13.4055C20.1044 13.2511 20.1652 13.0656 20.1667 12.875V10.125C20.1672 9.93287 20.1072 9.7454 19.9954 9.58913C19.8835 9.43287 19.7254 9.31571 19.5433 9.25421ZM18.3333 12.215L17.2333 12.5817C16.9804 12.6638 16.7483 12.7999 16.5532 12.9806C16.3581 13.1613 16.2047 13.3822 16.1035 13.6282C16.0023 13.8741 15.9559 14.1391 15.9674 14.4048C15.9789 14.6704 16.048 14.9304 16.17 15.1667L16.6925 16.2117L15.6842 17.22L14.6667 16.67C14.4316 16.5529 14.1741 16.4877 13.9116 16.4787C13.6491 16.4698 13.3878 16.5173 13.1453 16.6182C12.9028 16.719 12.6848 16.8707 12.506 17.0631C12.3272 17.2556 12.1919 17.4841 12.1092 17.7334L11.7425 18.8334H10.285L9.91833 17.7334C9.83628 17.4804 9.70019 17.2484 9.51949 17.0533C9.33879 16.8582 9.11781 16.7047 8.87188 16.6035C8.62595 16.5024 8.36096 16.4559 8.09529 16.4674C7.82961 16.4789 7.56962 16.548 7.33333 16.67L6.28833 17.1925L5.28 16.1842L5.83 15.1667C5.952 14.9304 6.02114 14.6704 6.03262 14.4048C6.04411 14.1391 5.99765 13.8741 5.89649 13.6282C5.79533 13.3822 5.64188 13.1613 5.44678 12.9806C5.25168 12.7999 5.01961 12.6638 4.76666 12.5817L3.66666 12.215V10.785L4.76666 10.4184C5.01961 10.3363 5.25168 10.2002 5.44678 10.0195C5.64188 9.83883 5.79533 9.61786 5.89649 9.37193C5.99765 9.126 6.04411 8.86101 6.03262 8.59533C6.02114 8.32966 5.952 8.06966 5.83 7.83338L5.3075 6.81588L6.31583 5.80754L7.33333 6.33004C7.56962 6.45205 7.82961 6.52119 8.09529 6.53267C8.36096 6.54415 8.62595 6.4977 8.87188 6.39654C9.11781 6.29537 9.33879 6.14192 9.51949 5.94683C9.70019 5.75173 9.83628 5.51966 9.91833 5.26671L10.285 4.16671H11.715L12.0817 5.26671C12.1637 5.51966 12.2998 5.75173 12.4805 5.94683C12.6612 6.14192 12.8822 6.29537 13.1281 6.39654C13.374 6.4977 13.639 6.54415 13.9047 6.53267C14.1704 6.52119 14.4304 6.45205 14.6667 6.33004L15.7117 5.80754L16.72 6.81588L16.17 7.83338C16.0529 8.06845 15.9876 8.32594 15.9787 8.58842C15.9697 8.8509 16.0173 9.11224 16.1181 9.35475C16.2189 9.59726 16.3707 9.81527 16.5631 9.99403C16.7555 10.1728 16.9841 10.3081 17.2333 10.3909L18.3333 10.7575V12.215ZM11 7.83338C10.2748 7.83338 9.56589 8.04842 8.96291 8.45132C8.35993 8.85422 7.88996 9.42687 7.61244 10.0969C7.33492 10.7669 7.26231 11.5041 7.40378 12.2154C7.54526 12.9266 7.89448 13.58 8.40727 14.0928C8.92006 14.6056 9.5734 14.9548 10.2847 15.0963C10.9959 15.2377 11.7332 15.1651 12.4032 14.8876C13.0732 14.6101 13.6458 14.1401 14.0487 13.5371C14.4516 12.9342 14.6667 12.2252 14.6667 11.5C14.6667 10.5276 14.2804 9.59495 13.5927 8.90732C12.9051 8.21969 11.9725 7.83338 11 7.83338ZM11 13.3334C10.6374 13.3334 10.2829 13.2259 9.98145 13.0244C9.67996 12.823 9.44498 12.5366 9.30622 12.2016C9.16746 11.8666 9.13115 11.498 9.20189 11.1424C9.27263 10.7867 9.44724 10.4601 9.70364 10.2037C9.96003 9.94728 10.2867 9.77268 10.6423 9.70194C10.998 9.6312 11.3666 9.6675 11.7016 9.80626C12.0366 9.94502 12.3229 10.18 12.5244 10.4815C12.7258 10.783 12.8333 11.1374 12.8333 11.5C12.8333 11.9863 12.6402 12.4526 12.2964 12.7964C11.9525 13.1402 11.4862 13.3334 11 13.3334Z" fill="#262626"></path>
</svg>
