<svg width="18" height="18" viewBox="0 0 18 18" fill="none" xmlns="http://www.w3.org/2000/svg">
<path d="M2.78251 12.2175C2.71118 12.1492 2.62707 12.0957 2.53501 12.06C2.35241 11.985 2.1476 11.985 1.96501 12.06C1.87294 12.0957 1.78883 12.1492 1.71751 12.2175C1.64923 12.2888 1.5957 12.3729 1.56001 12.465C1.50257 12.6016 1.48688 12.7521 1.51491 12.8976C1.54294 13.0431 1.61344 13.177 1.71751 13.2825C1.79041 13.3487 1.87412 13.402 1.96501 13.44C2.05478 13.4797 2.15185 13.5002 2.25001 13.5002C2.34816 13.5002 2.44523 13.4797 2.53501 13.44C2.6259 13.402 2.70961 13.3487 2.78251 13.2825C2.88657 13.177 2.95707 13.0431 2.9851 12.8976C3.01313 12.7521 2.99744 12.6016 2.94001 12.465C2.90431 12.3729 2.85079 12.2888 2.78251 12.2175ZM5.25001 6H15.75C15.9489 6 16.1397 5.92098 16.2803 5.78033C16.421 5.63968 16.5 5.44891 16.5 5.25C16.5 5.05109 16.421 4.86032 16.2803 4.71967C16.1397 4.57902 15.9489 4.5 15.75 4.5H5.25001C5.05109 4.5 4.86033 4.57902 4.71968 4.71967C4.57902 4.86032 4.50001 5.05109 4.50001 5.25C4.50001 5.44891 4.57902 5.63968 4.71968 5.78033C4.86033 5.92098 5.05109 6 5.25001 6ZM2.78251 8.4675C2.67704 8.36343 2.54311 8.29293 2.39762 8.2649C2.25212 8.23687 2.10159 8.25257 1.96501 8.31C1.87412 8.34798 1.79041 8.40125 1.71751 8.4675C1.64923 8.53883 1.5957 8.62294 1.56001 8.715C1.52033 8.80478 1.49983 8.90185 1.49983 9C1.49983 9.09815 1.52033 9.19522 1.56001 9.285C1.59799 9.37589 1.65126 9.4596 1.71751 9.5325C1.79041 9.59875 1.87412 9.65202 1.96501 9.69C2.05478 9.72968 2.15185 9.75017 2.25001 9.75017C2.34816 9.75017 2.44523 9.72968 2.53501 9.69C2.6259 9.65202 2.70961 9.59875 2.78251 9.5325C2.84875 9.4596 2.90203 9.37589 2.94001 9.285C2.97969 9.19522 3.00018 9.09815 3.00018 9C3.00018 8.90185 2.97969 8.80478 2.94001 8.715C2.90431 8.62294 2.85079 8.53883 2.78251 8.4675ZM15.75 8.25H5.25001C5.05109 8.25 4.86033 8.32902 4.71968 8.46967C4.57902 8.61032 4.50001 8.80109 4.50001 9C4.50001 9.19891 4.57902 9.38968 4.71968 9.53033C4.86033 9.67098 5.05109 9.75 5.25001 9.75H15.75C15.9489 9.75 16.1397 9.67098 16.2803 9.53033C16.421 9.38968 16.5 9.19891 16.5 9C16.5 8.80109 16.421 8.61032 16.2803 8.46967C16.1397 8.32902 15.9489 8.25 15.75 8.25ZM2.78251 4.7175C2.71118 4.64922 2.62707 4.5957 2.53501 4.56C2.39842 4.50257 2.24789 4.48687 2.1024 4.5149C1.9569 4.54293 1.82297 4.61343 1.71751 4.7175C1.65126 4.7904 1.59799 4.87411 1.56001 4.965C1.52033 5.05478 1.49983 5.15185 1.49983 5.25C1.49983 5.34815 1.52033 5.44522 1.56001 5.535C1.59799 5.62589 1.65126 5.7096 1.71751 5.7825C1.79041 5.84875 1.87412 5.90202 1.96501 5.94C2.10159 5.99743 2.25212 6.01313 2.39762 5.9851C2.54311 5.95707 2.67704 5.88657 2.78251 5.7825C2.84875 5.7096 2.90203 5.62589 2.94001 5.535C2.97969 5.44522 3.00018 5.34815 3.00018 5.25C3.00018 5.15185 2.97969 5.05478 2.94001 4.965C2.90203 4.87411 2.84875 4.7904 2.78251 4.7175ZM15.75 12H5.25001C5.05109 12 4.86033 12.079 4.71968 12.2197C4.57902 12.3603 4.50001 12.5511 4.50001 12.75C4.50001 12.9489 4.57902 13.1397 4.71968 13.2803C4.86033 13.421 5.05109 13.5 5.25001 13.5H15.75C15.9489 13.5 16.1397 13.421 16.2803 13.2803C16.421 13.1397 16.5 12.9489 16.5 12.75C16.5 12.5511 16.421 12.3603 16.2803 12.2197C16.1397 12.079 15.9489 12 15.75 12Z" fill="white"></path>
</svg>
