<svg width="22" height="23" viewBox="0 0 22 23" fill="none" xmlns="http://www.w3.org/2000/svg">
<path d="M17.4167 10.5833H11.9167V5.08329C11.9167 4.84018 11.8201 4.60702 11.6482 4.43511C11.4763 4.2632 11.2431 4.16663 11 4.16663C10.7569 4.16663 10.5237 4.2632 10.3518 4.43511C10.1799 4.60702 10.0833 4.84018 10.0833 5.08329V10.5833H4.58333C4.34022 10.5833 4.10706 10.6799 3.93515 10.8518C3.76324 11.0237 3.66667 11.2568 3.66667 11.5C3.66667 11.7431 3.76324 11.9762 3.93515 12.1481C4.10706 12.32 4.34022 12.4166 4.58333 12.4166H10.0833V17.9166C10.0833 18.1597 10.1799 18.3929 10.3518 18.5648C10.5237 18.7367 10.7569 18.8333 11 18.8333C11.2431 18.8333 11.4763 18.7367 11.6482 18.5648C11.8201 18.3929 11.9167 18.1597 11.9167 17.9166V12.4166H17.4167C17.6598 12.4166 17.8929 12.32 18.0648 12.1481C18.2368 11.9762 18.3333 11.7431 18.3333 11.5C18.3333 11.2568 18.2368 11.0237 18.0648 10.8518C17.8929 10.6799 17.6598 10.5833 17.4167 10.5833Z" fill="#262626"></path>
</svg>
