<svg width="23" height="22" viewBox="0 0 23 22" fill="none" xmlns="http://www.w3.org/2000/svg">
<path d="M17.6744 10.0833H12.1744V4.58329C12.1744 4.34018 12.0778 4.10702 11.9059 3.93511C11.734 3.7632 11.5009 3.66663 11.2577 3.66663C11.0146 3.66663 10.7815 3.7632 10.6096 3.93511C10.4377 4.10702 10.3411 4.34018 10.3411 4.58329V10.0833H4.84107C4.59796 10.0833 4.3648 10.1799 4.19289 10.3518C4.02099 10.5237 3.92441 10.7568 3.92441 11C3.92441 11.2431 4.02099 11.4762 4.19289 11.6481C4.3648 11.82 4.59796 11.9166 4.84107 11.9166H10.3411V17.4166C10.3411 17.6597 10.4377 17.8929 10.6096 18.0648C10.7815 18.2367 11.0146 18.3333 11.2577 18.3333C11.5009 18.3333 11.734 18.2367 11.9059 18.0648C12.0778 17.8929 12.1744 17.6597 12.1744 17.4166V11.9166H17.6744C17.9175 11.9166 18.1507 11.82 18.3226 11.6481C18.4945 11.4762 18.5911 11.2431 18.5911 11C18.5911 10.7568 18.4945 10.5237 18.3226 10.3518C18.1507 10.1799 17.9175 10.0833 17.6744 10.0833Z" fill="#171717"></path>
</svg>
