<svg width="18" height="19" viewBox="0 0 18 19" fill="none" xmlns="http://www.w3.org/2000/svg">
<path d="M15.5325 7.4675L11.0325 2.9675C10.9634 2.90004 10.8819 2.84656 10.7925 2.81C10.6995 2.77221 10.6004 2.75187 10.5 2.75H4.5C3.90326 2.75 3.33097 2.98705 2.90901 3.40901C2.48705 3.83097 2.25 4.40326 2.25 5V14C2.25 14.5967 2.48705 15.169 2.90901 15.591C3.33097 16.0129 3.90326 16.25 4.5 16.25H13.5C14.0967 16.25 14.669 16.0129 15.091 15.591C15.5129 15.169 15.75 14.5967 15.75 14V8C15.7506 7.9013 15.7317 7.80345 15.6943 7.71207C15.657 7.62069 15.602 7.53758 15.5325 7.4675ZM6.75 4.25H9.75V5.75H6.75V4.25ZM11.25 14.75H6.75V12.5C6.75 12.3011 6.82902 12.1103 6.96967 11.9697C7.11032 11.829 7.30109 11.75 7.5 11.75H10.5C10.6989 11.75 10.8897 11.829 11.0303 11.9697C11.171 12.1103 11.25 12.3011 11.25 12.5V14.75ZM14.25 14C14.25 14.1989 14.171 14.3897 14.0303 14.5303C13.8897 14.671 13.6989 14.75 13.5 14.75H12.75V12.5C12.75 11.9033 12.5129 11.331 12.091 10.909C11.669 10.4871 11.0967 10.25 10.5 10.25H7.5C6.90326 10.25 6.33097 10.4871 5.90901 10.909C5.48705 11.331 5.25 11.9033 5.25 12.5V14.75H4.5C4.30109 14.75 4.11032 14.671 3.96967 14.5303C3.82902 14.3897 3.75 14.1989 3.75 14V5C3.75 4.80109 3.82902 4.61032 3.96967 4.46967C4.11032 4.32902 4.30109 4.25 4.5 4.25H5.25V6.5C5.25 6.69891 5.32902 6.88968 5.46967 7.03033C5.61032 7.17098 5.80109 7.25 6 7.25H10.5C10.6989 7.25 10.8897 7.17098 11.0303 7.03033C11.171 6.88968 11.25 6.69891 11.25 6.5V5.3075L14.25 8.3075V14Z" fill="white"></path>
</svg>
